# Blender 4.5.4 LTS
# www.blender.org
mtllib Stage Curtains.mtl
o Stage_Curtains
v -0.010577 6.327021 -0.304800
v 0.070190 0.123865 0.000000
v 0.019199 0.291576 -0.304800
v 0.070190 0.219452 0.000000
v -0.010577 6.327021 0.000000
v 0.033389 0.139930 -0.174453
v 0.037699 0.233251 -0.150601
v 0.035169 0.255906 -0.150601
v 0.017926 0.313177 -0.304800
v 0.070190 0.238454 0.000000
v 0.025800 0.179030 -0.304800
v 0.070190 0.123865 -0.609600
v 0.070190 0.219452 -0.609600
v -0.010577 6.327021 -0.609600
v 0.038972 0.232797 -0.462006
v 0.034732 0.139859 -0.438631
v 0.033389 0.139930 -0.784053
v 0.037699 0.233251 -0.760202
v 0.035169 0.255906 -0.760202
v 0.036461 0.255273 -0.462006
v 0.070190 0.238454 -0.609600
v -0.010577 6.327021 -0.914400
v 0.025800 0.179030 -0.914400
v 0.025800 0.179030 -1.524000
v 0.070190 0.123865 -1.219200
v 0.019199 0.291576 -0.914400
v 0.019199 0.291576 -1.524000
v 0.070190 0.219452 -1.219200
v -0.010577 6.327021 -1.219200
v 0.038972 0.232797 -1.071606
v 0.034731 0.139859 -1.048231
v 0.033389 0.139930 -1.393653
v 0.037699 0.233251 -1.369802
v 0.035169 0.255906 -1.369802
v 0.036461 0.255273 -1.071606
v 0.017926 0.313177 -0.914400
v 0.070190 0.238454 -1.219200
v -0.010577 6.327021 -1.524000
v 0.025800 0.179030 -2.133600
v -0.010577 6.327021 -2.133600
v 0.070190 0.123865 -1.828800
v 0.070190 0.219452 -1.828800
v -0.010577 6.327021 -1.828800
v 0.038972 0.232797 -1.681206
v 0.034732 0.139859 -1.657831
v 0.033389 0.139930 -2.003253
v 0.037699 0.233251 -1.979401
v 0.035169 0.255906 -1.979401
v 0.036461 0.255273 -1.681206
v 0.017926 0.313177 -1.524000
v 0.070190 0.238454 -1.828800
v 0.025800 0.179030 -2.743200
v -0.010577 6.327021 -2.743200
v 0.070190 0.123865 -2.438400
v 0.019199 0.291576 -2.133600
v 0.019199 0.291576 -2.743200
v 0.070190 0.219452 -2.438400
v -0.010577 6.327021 -2.438400
v 0.038972 0.232797 -2.290806
v 0.034732 0.139859 -2.267431
v 0.033389 0.139930 -2.612853
v 0.037699 0.233251 -2.589001
v 0.035169 0.255906 -2.589001
v 0.036461 0.255273 -2.290806
v 0.017926 0.313177 -2.743200
v 0.017926 0.313177 -2.133600
v 0.070190 0.238454 -2.438400
v 0.070190 0.123865 -3.048000
v 0.070190 0.219452 -3.048000
v -0.010577 6.327021 -3.048000
v 0.038972 0.232797 -2.900406
v 0.034732 0.139859 -2.877031
v 0.033389 0.139930 -3.222453
v 0.037699 0.233251 -3.198601
v 0.035169 0.255906 -3.198601
v 0.036461 0.255273 -2.900406
v 0.070190 0.238454 -3.048000
v -0.010577 6.327021 -3.352800
v 0.025800 0.179030 -3.352800
v 0.025800 0.179030 -3.962400
v 0.070190 0.123865 -3.657600
v 0.019199 0.291576 -3.352800
v 0.070190 0.219452 -3.657600
v -0.010577 6.327021 -3.657600
v 0.038972 0.232797 -3.510006
v 0.034732 0.139859 -3.486631
v 0.033389 0.139930 -3.832053
v 0.037699 0.233251 -3.808202
v 0.035169 0.255906 -3.808202
v 0.036461 0.255273 -3.510006
v 0.017926 0.313177 -3.352800
v 0.070190 0.238454 -3.657600
v -0.010577 6.327021 -3.962400
v 0.025800 0.179030 -4.572000
v 0.070190 0.123865 -4.267200
v 0.019199 0.291576 -3.962400
v 0.070190 0.219452 -4.267200
v -0.010577 6.327021 -4.267200
v 0.038972 0.232797 -4.119606
v 0.034732 0.139859 -4.096231
v 0.033389 0.139930 -4.441653
v 0.037699 0.233251 -4.417801
v 0.035169 0.255906 -4.417801
v 0.036461 0.255273 -4.119606
v 0.017926 0.313177 -3.962400
v 0.070190 0.238454 -4.267200
v -0.010577 6.327021 -4.572000
v 0.025800 0.179030 -5.181600
v -0.010577 6.327021 -5.181600
v 0.070190 0.123865 -4.876800
v 0.019199 0.291576 -4.572000
v 0.070190 0.219452 -4.876800
v -0.010577 6.327021 -4.876800
v 0.038972 0.232797 -4.729206
v 0.034732 0.139859 -4.705831
v 0.033389 0.139930 -5.051253
v 0.037699 0.233251 -5.027401
v 0.035169 0.255906 -5.027401
v 0.036461 0.255273 -4.729206
v 0.017926 0.313177 -5.181600
v 0.017926 0.313177 -4.572000
v 0.070190 0.238454 -4.876800
v 0.025800 0.179030 -5.791200
v -0.010577 6.327021 -5.791200
v 0.070190 0.123865 -5.486400
v 0.019199 0.291576 -5.181600
v 0.070190 0.219452 -5.486400
v -0.010577 6.327021 -5.486400
v 0.038972 0.232797 -5.338806
v 0.034732 0.139859 -5.315431
v 0.033389 0.139930 -5.660853
v 0.037699 0.233251 -5.637002
v 0.035169 0.255906 -5.637002
v 0.036461 0.255273 -5.338806
v 0.070190 0.238454 -5.486400
v 0.025800 0.179030 -6.400800
v -0.010577 6.327021 -6.400800
v 0.070190 0.123865 -6.096000
v 0.019199 0.291576 -5.791200
v 0.019199 0.291576 -6.400800
v 0.070190 0.219452 -6.096000
v -0.010577 6.327021 -6.096000
v 0.038972 0.232797 -5.948406
v 0.034732 0.139859 -5.925031
v 0.033389 0.139930 -6.270453
v 0.037699 0.233251 -6.246602
v 0.035169 0.255906 -6.246602
v 0.036461 0.255273 -5.948406
v 0.017926 0.313177 -6.400800
v 0.017926 0.313177 -5.791200
v 0.070190 0.238454 -6.096000
v 0.025800 0.179030 -7.010400
v -0.010577 6.327021 -7.010400
v 0.070190 0.123865 -6.705600
v 0.019199 0.291576 -7.010400
v 0.070190 0.219452 -6.705600
v -0.010577 6.327021 -6.705600
v 0.038972 0.232797 -6.558006
v 0.034732 0.139859 -6.534631
v 0.033389 0.139930 -6.880053
v 0.037699 0.233251 -6.856202
v 0.035169 0.255906 -6.856202
v 0.036461 0.255273 -6.558006
v 0.017926 0.313177 -7.010400
v 0.070190 0.238454 -6.705600
v -0.010577 6.327021 -7.620000
v 0.070190 0.123865 -7.315200
v 0.070190 0.219452 -7.315200
v -0.010577 6.327021 -7.315200
v 0.038972 0.232797 -7.167606
v 0.034732 0.139859 -7.144231
v 0.033389 0.139930 -7.489653
v 0.037699 0.233251 -7.465802
v 0.035169 0.255906 -7.465802
v 0.036461 0.255273 -7.167606
v 0.017926 0.313177 -7.620000
v 0.070190 0.238454 -7.315200
v 0.025800 0.179030 -7.620000
v 0.070190 0.123865 -7.924800
v 0.019199 0.291576 -7.620000
v 0.070190 0.219452 -7.924800
v -0.010577 6.327021 -7.924800
v 0.038972 0.232797 -7.777206
v 0.034732 0.139859 -7.753831
v 0.033389 0.139930 -8.099253
v 0.037699 0.233250 -8.075402
v 0.035169 0.255905 -8.075402
v 0.036461 0.255273 -7.777206
v 0.017926 0.313177 -8.229600
v 0.070190 0.238454 -7.924800
v -0.010577 6.327021 -8.229600
v 0.025800 0.179030 -8.229600
v 0.025800 0.179030 -8.839200
v -0.010577 6.327021 -8.839200
v 0.070190 0.123865 -8.534400
v 0.019200 0.291576 -8.229600
v 0.070190 0.219452 -8.534400
v -0.010577 6.327021 -8.534400
v 0.038972 0.232797 -8.386806
v 0.034732 0.139859 -8.363431
v 0.033389 0.139930 -8.708853
v 0.037699 0.233251 -8.685001
v 0.035169 0.255906 -8.685001
v 0.036461 0.255273 -8.386806
v 0.070190 0.238454 -8.534400
v 0.025800 0.179030 -9.448800
v 0.070190 0.123865 -9.144000
v 0.019199 0.291576 -8.839200
v 0.070190 0.219452 -9.144000
v -0.010577 6.327021 -9.144000
v 0.038972 0.232797 -8.996406
v 0.034732 0.139859 -8.973031
v 0.033389 0.139930 -9.318453
v 0.037699 0.233251 -9.294601
v 0.035169 0.255906 -9.294601
v 0.036461 0.255273 -8.996406
v 0.017926 0.313177 -8.839200
v 0.070190 0.238454 -9.144000
v -0.010577 6.327021 -9.448800
v 0.025800 0.179030 -10.058400
v -0.010577 6.327021 -10.058400
v 0.070190 0.123865 -9.753600
v 0.019199 0.291576 -9.448800
v 0.070190 0.219452 -9.753600
v -0.010577 6.327021 -9.753600
v 0.038972 0.232797 -9.606006
v 0.034732 0.139859 -9.582631
v 0.033389 0.139930 -9.928053
v 0.037699 0.233251 -9.904202
v 0.035169 0.255906 -9.904202
v 0.036461 0.255273 -9.606006
v 0.017926 0.313177 -10.058400
v 0.017926 0.313177 -9.448800
v 0.070190 0.238454 -9.753600
v 0.025800 0.179030 -10.668000
v 0.070190 0.123865 -10.363200
v 0.019199 0.291576 -10.058400
v 0.019199 0.291576 -10.668000
v 0.070190 0.219452 -10.363200
v -0.010577 6.327021 -10.363200
v 0.038972 0.232797 -10.215606
v 0.034732 0.139859 -10.192231
v 0.033389 0.139930 -10.537653
v 0.037699 0.233251 -10.513802
v 0.035169 0.255906 -10.513802
v 0.036461 0.255273 -10.215606
v 0.017926 0.313177 -10.668000
v 0.070190 0.238454 -10.363200
v -0.010577 6.327021 -10.668000
v 0.025800 0.179030 -11.277600
v -0.010577 6.327021 -11.277600
v 0.070190 0.123865 -10.972800
v 0.070190 0.219452 -10.972800
v -0.010577 6.327021 -10.972800
v 0.038972 0.232797 -10.825206
v 0.034732 0.139859 -10.801831
v 0.033389 0.139930 -11.147253
v 0.037699 0.233251 -11.123402
v 0.035169 0.255906 -11.123402
v 0.036461 0.255273 -10.825206
v 0.070190 0.238454 -10.972800
v 0.025800 0.179030 -11.887200
v -0.010577 6.327021 -11.887200
v 0.070190 0.123865 -11.582400
v 0.019199 0.291576 -11.277600
v 0.070190 0.219452 -11.582400
v -0.010577 6.327021 -11.582400
v 0.038972 0.232797 -11.434806
v 0.034732 0.139859 -11.411431
v 0.033389 0.139930 -11.756853
v 0.037699 0.233251 -11.733002
v 0.035169 0.255906 -11.733002
v 0.036461 0.255273 -11.434806
v 0.017926 0.313177 -11.887200
v 0.017926 0.313177 -11.277600
v 0.070190 0.238454 -11.582400
v 0.025800 0.179030 -12.496800
v -0.010577 6.327021 -12.496800
v 0.070190 0.123865 -12.192000
v 0.019199 0.291576 -11.887200
v 0.070190 0.219452 -12.192000
v -0.010577 6.327021 -12.192000
v 0.038972 0.232797 -12.044406
v 0.034732 0.139859 -12.021031
v 0.033389 0.139930 -12.366453
v 0.037699 0.233251 -12.342602
v 0.035169 0.255906 -12.342602
v 0.036461 0.255273 -12.044406
v 0.070190 0.238454 -12.192000
v 0.070190 0.123865 -12.801600
v 0.019199 0.291576 -12.496800
v 0.070190 0.219452 -12.801600
v -0.010577 6.327021 -12.801600
v 0.038972 0.232797 -12.654006
v 0.034732 0.139859 -12.630631
v 0.033389 0.139930 -12.976053
v 0.037699 0.233251 -12.952202
v 0.035169 0.255906 -12.952202
v 0.036461 0.255273 -12.654006
v 0.017926 0.313177 -13.106400
v 0.017926 0.313177 -12.496800
v 0.070190 0.238454 -12.801600
v -0.010577 6.327021 -13.106400
v 0.025800 0.179030 -13.106400
v -0.010577 6.327021 -13.716001
v 0.070190 0.123865 -13.411201
v 0.019199 0.291576 -13.106400
v 0.070190 0.219452 -13.411201
v -0.010577 6.327021 -13.411201
v 0.038972 0.232797 -13.263606
v 0.034732 0.139859 -13.240232
v 0.033389 0.139930 -13.585653
v 0.037699 0.233251 -13.561802
v 0.035169 0.255906 -13.561802
v 0.036461 0.255273 -13.263606
v 0.070190 0.238454 -13.411201
v 0.025800 0.179030 -13.716001
v 0.025800 0.179030 -14.325601
v 0.070190 0.123865 -14.020801
v 0.019199 0.291576 -13.716001
v 0.019199 0.291576 -14.325601
v 0.070190 0.219452 -14.020801
v -0.010577 6.327021 -14.020801
v 0.038972 0.232797 -13.873206
v 0.034732 0.139859 -13.849832
v 0.033389 0.139930 -14.195253
v 0.037699 0.233251 -14.171402
v 0.035169 0.255906 -14.171402
v 0.036461 0.255273 -13.873206
v 0.017926 0.313177 -14.325601
v 0.017926 0.313177 -13.716001
v 0.070190 0.238454 -14.020801
v -0.010577 6.327021 -14.325601
v -0.010577 6.327021 -14.935201
v 0.070190 0.123865 -14.630401
v 0.019199 0.291576 -14.935201
v 0.070190 0.219452 -14.630401
v -0.010577 6.327021 -14.630401
v 0.038972 0.232797 -14.482806
v 0.034732 0.139859 -14.459432
v 0.033389 0.139930 -14.804853
v 0.037699 0.233251 -14.781002
v 0.035169 0.255906 -14.781002
v 0.036461 0.255273 -14.482806
v 0.070190 0.238454 -14.630401
v 0.025800 0.179030 -14.935201
v 0.025800 0.179030 -15.544801
v -0.010577 6.327021 -15.544801
v 0.070190 0.123865 -15.240001
v 0.019199 0.291576 -15.544801
v 0.070190 0.219452 -15.240001
v -0.010577 6.327021 -15.240001
v 0.038972 0.232797 -15.092406
v 0.034732 0.139859 -15.069032
v 0.033389 0.139930 -15.414454
v 0.037699 0.233251 -15.390602
v 0.035169 0.255906 -15.390602
v 0.036461 0.255273 -15.092406
v 0.017926 0.313177 -15.544801
v 0.017926 0.313177 -14.935201
v 0.070190 0.238454 -15.240001
v 0.025801 0.179030 -16.154400
v -0.010577 6.327021 -16.154400
v 0.070190 0.123865 -15.849601
v 0.070190 0.219451 -15.849601
v -0.010577 6.327021 -15.849601
v 0.038972 0.232797 -15.702006
v 0.034732 0.139859 -15.678632
v 0.033389 0.139929 -16.024054
v 0.037699 0.233250 -16.000202
v 0.035169 0.255905 -16.000202
v 0.036461 0.255273 -15.702006
v 0.070190 0.238454 -15.849601
v 0.070190 0.123865 -16.459200
v 0.019200 0.291576 -16.154400
v 0.019199 0.291576 -16.764000
v 0.070190 0.219452 -16.459200
v -0.010577 6.327021 -16.459200
v 0.038972 0.232797 -16.311605
v 0.034732 0.139859 -16.288231
v 0.033390 0.139930 -16.633652
v 0.037699 0.233250 -16.609802
v 0.035169 0.255905 -16.609802
v 0.036461 0.255273 -16.311605
v 0.017926 0.313177 -16.154400
v 0.070190 0.238454 -16.459200
v -0.010577 6.327021 -16.764000
v 0.025800 0.179030 -16.764000
v 0.070190 0.123865 -17.068800
v 0.070190 0.219452 -17.068800
v -0.010577 6.327021 -17.068800
v 0.038972 0.232797 -16.921206
v 0.034732 0.139859 -16.897831
v 0.036461 0.255273 -16.921206
v 0.017926 0.313177 -16.764000
v 0.070190 0.238454 -17.068800
vn 0.9785 -0.0000 -0.2064
vn 0.9975 0.0585 -0.0405
vn 0.9940 0.0047 -0.1094
vn 1.0000 0.0075 -0.0000
vn 0.9921 -0.0140 -0.1243
vn 0.9776 0.0086 -0.2101
vn 0.9775 -0.0000 -0.2109
vn 0.9743 0.0129 -0.2251
vn 0.9943 0.0586 -0.0894
vn 0.9710 0.1084 -0.2132
vn 0.9909 0.1106 -0.0770
vn 0.9933 0.0047 0.1154
vn 0.9971 0.0585 0.0494
vn 0.9792 -0.0000 0.2031
vn 0.9785 0.0072 0.2063
vn 0.9751 0.0129 0.2214
vn 0.9915 -0.0127 0.1294
vn 0.9904 0.1106 0.0832
vn 0.9784 -0.0000 0.2069
vn 1.0000 0.0077 -0.0000
vn 0.9937 0.0586 0.0956
vn 0.9717 0.1085 0.2097
vn 0.9909 0.1107 -0.0770
vn 0.9717 0.1086 0.2097
vn 0.9776 0.0085 -0.2101
vn 0.9710 0.1085 -0.2132
s 0
usemtl beams
f 4//1 2//1 6//1
f 11//2 3//2 6//2
f 1//3 8//3 9//3
f 1//4 5//4 8//4
f 3//5 7//5 6//5
f 6//6 7//6 4//6
f 7//7 10//7 4//7
f 10//8 8//8 5//8
f 8//9 3//9 9//9
f 7//10 8//10 10//10
f 8//11 7//11 3//11
f 13//1 12//1 17//1
f 23//2 26//2 17//2
f 1//12 9//12 20//12
f 22//3 19//3 36//3
f 22//4 14//4 19//4
f 26//5 18//5 17//5
f 3//13 11//13 16//13
f 16//14 12//14 13//14
f 15//15 16//15 13//15
f 14//16 20//16 21//16
f 17//6 18//6 13//6
f 15//17 3//17 16//17
f 18//7 21//7 13//7
f 20//18 3//18 15//18
f 21//8 19//8 14//8
f 19//9 26//9 36//9
f 21//19 15//19 13//19
f 20//20 14//20 1//20
f 18//10 19//10 21//10
f 20//21 9//21 3//21
f 19//11 18//11 26//11
f 21//22 20//22 15//22
f 28//1 25//1 32//1
f 24//2 27//2 32//2
f 22//12 36//12 35//12
f 38//3 34//3 50//3
f 38//4 29//4 34//4
f 27//5 33//5 32//5
f 26//13 23//13 31//13
f 31//14 25//14 28//14
f 30//15 31//15 28//15
f 29//16 35//16 37//16
f 32//6 33//6 28//6
f 30//17 26//17 31//17
f 33//7 37//7 28//7
f 35//18 26//18 30//18
f 37//8 34//8 29//8
f 34//9 27//9 50//9
f 37//19 30//19 28//19
f 35//20 29//20 22//20
f 33//10 34//10 37//10
f 35//21 36//21 26//21
f 34//11 33//11 27//11
f 37//22 35//22 30//22
f 42//1 41//1 46//1
f 39//2 55//2 46//2
f 38//12 50//12 49//12
f 40//3 48//3 66//3
f 40//4 43//4 48//4
f 55//5 47//5 46//5
f 27//13 24//13 45//13
f 45//14 41//14 42//14
f 44//15 45//15 42//15
f 43//16 49//16 51//16
f 46//6 47//6 42//6
f 44//17 27//17 45//17
f 47//7 51//7 42//7
f 49//18 27//18 44//18
f 51//8 48//8 43//8
f 48//9 55//9 66//9
f 51//19 44//19 42//19
f 49//20 43//20 38//20
f 47//10 48//10 51//10
f 49//21 50//21 27//21
f 48//11 47//11 55//11
f 51//22 49//22 44//22
f 57//1 54//1 61//1
f 52//2 56//2 61//2
f 40//12 66//12 64//12
f 53//3 63//3 65//3
f 53//4 58//4 63//4
f 56//5 62//5 61//5
f 55//13 39//13 60//13
f 60//14 54//14 57//14
f 59//15 60//15 57//15
f 58//16 64//16 67//16
f 61//6 62//6 57//6
f 59//17 55//17 60//17
f 62//7 67//7 57//7
f 64//18 55//18 59//18
f 67//8 63//8 58//8
f 63//9 56//9 65//9
f 67//19 59//19 57//19
f 64//20 58//20 40//20
f 62//10 63//10 67//10
f 64//21 66//21 55//21
f 63//23 62//23 56//23
f 67//22 64//22 59//22
f 69//1 68//1 73//1
f 79//2 82//2 73//2
f 53//12 65//12 76//12
f 78//3 75//3 91//3
f 78//4 70//4 75//4
f 82//5 74//5 73//5
f 56//13 52//13 72//13
f 72//14 68//14 69//14
f 71//15 72//15 69//15
f 70//16 76//16 77//16
f 73//6 74//6 69//6
f 71//17 56//17 72//17
f 74//7 77//7 69//7
f 76//18 56//18 71//18
f 77//8 75//8 70//8
f 75//9 82//9 91//9
f 77//19 71//19 69//19
f 76//20 70//20 53//20
f 74//10 75//10 77//10
f 76//21 65//21 56//21
f 75//11 74//11 82//11
f 77//22 76//22 71//22
f 83//1 81//1 87//1
f 80//2 96//2 87//2
f 78//12 91//12 90//12
f 93//3 89//3 105//3
f 93//4 84//4 89//4
f 96//5 88//5 87//5
f 82//13 79//13 86//13
f 86//14 81//14 83//14
f 85//15 86//15 83//15
f 84//16 90//16 92//16
f 87//6 88//6 83//6
f 85//17 82//17 86//17
f 88//7 92//7 83//7
f 90//18 82//18 85//18
f 92//8 89//8 84//8
f 89//9 96//9 105//9
f 92//19 85//19 83//19
f 90//20 84//20 78//20
f 88//10 89//10 92//10
f 90//21 91//21 82//21
f 89//11 88//11 96//11
f 92//22 90//22 85//22
f 97//1 95//1 101//1
f 94//2 111//2 101//2
f 93//12 105//12 104//12
f 107//3 103//3 121//3
f 107//4 98//4 103//4
f 111//5 102//5 101//5
f 96//13 80//13 100//13
f 100//14 95//14 97//14
f 99//15 100//15 97//15
f 98//16 104//16 106//16
f 101//6 102//6 97//6
f 99//17 96//17 100//17
f 102//7 106//7 97//7
f 104//18 96//18 99//18
f 106//8 103//8 98//8
f 103//9 111//9 121//9
f 106//19 99//19 97//19
f 104//20 98//20 93//20
f 102//10 103//10 106//10
f 104//21 105//21 96//21
f 103//23 102//23 111//23
f 106//22 104//22 99//22
f 112//1 110//1 116//1
f 108//2 126//2 116//2
f 107//12 121//12 119//12
f 109//3 118//3 120//3
f 109//4 113//4 118//4
f 126//5 117//5 116//5
f 111//13 94//13 115//13
f 115//14 110//14 112//14
f 114//15 115//15 112//15
f 113//16 119//16 122//16
f 116//6 117//6 112//6
f 114//17 111//17 115//17
f 117//7 122//7 112//7
f 119//18 111//18 114//18
f 122//8 118//8 113//8
f 118//9 126//9 120//9
f 122//19 114//19 112//19
f 119//20 113//20 107//20
f 117//10 118//10 122//10
f 119//21 121//21 111//21
f 118//23 117//23 126//23
f 122//22 119//22 114//22
f 127//1 125//1 131//1
f 123//2 139//2 131//2
f 109//12 120//12 134//12
f 124//3 133//3 150//3
f 124//4 128//4 133//4
f 139//5 132//5 131//5
f 126//13 108//13 130//13
f 130//14 125//14 127//14
f 129//15 130//15 127//15
f 128//16 134//16 135//16
f 131//6 132//6 127//6
f 129//17 126//17 130//17
f 132//7 135//7 127//7
f 134//18 126//18 129//18
f 135//8 133//8 128//8
f 133//9 139//9 150//9
f 135//19 129//19 127//19
f 134//20 128//20 109//20
f 132//10 133//10 135//10
f 134//21 120//21 126//21
f 133//23 132//23 139//23
f 135//22 134//22 129//22
f 141//1 138//1 145//1
f 136//2 140//2 145//2
f 124//12 150//12 148//12
f 137//3 147//3 149//3
f 137//4 142//4 147//4
f 140//5 146//5 145//5
f 139//13 123//13 144//13
f 144//14 138//14 141//14
f 143//15 144//15 141//15
f 142//16 148//16 151//16
f 145//6 146//6 141//6
f 143//17 139//17 144//17
f 146//7 151//7 141//7
f 148//18 139//18 143//18
f 151//8 147//8 142//8
f 147//9 140//9 149//9
f 151//19 143//19 141//19
f 148//20 142//20 124//20
f 146//10 147//10 151//10
f 148//21 150//21 139//21
f 147//23 146//23 140//23
f 151//22 148//22 143//22
f 156//1 154//1 160//1
f 152//2 155//2 160//2
f 137//12 149//12 163//12
f 153//3 162//3 164//3
f 153//4 157//4 162//4
f 155//5 161//5 160//5
f 140//13 136//13 159//13
f 159//14 154//14 156//14
f 158//15 159//15 156//15
f 157//16 163//16 165//16
f 160//6 161//6 156//6
f 158//17 140//17 159//17
f 161//7 165//7 156//7
f 163//18 140//18 158//18
f 165//8 162//8 157//8
f 162//9 155//9 164//9
f 165//19 158//19 156//19
f 163//20 157//20 137//20
f 161//10 162//10 165//10
f 163//21 149//21 140//21
f 162//23 161//23 155//23
f 165//22 163//22 158//22
f 168//1 167//1 172//1
f 178//2 180//2 172//2
f 153//12 164//12 175//12
f 166//3 174//3 176//3
f 166//4 169//4 174//4
f 180//5 173//5 172//5
f 155//13 152//13 171//13
f 171//14 167//14 168//14
f 170//15 171//15 168//15
f 169//16 175//16 177//16
f 172//6 173//6 168//6
f 170//17 155//17 171//17
f 173//7 177//7 168//7
f 175//18 155//18 170//18
f 177//8 174//8 169//8
f 174//9 180//9 176//9
f 177//19 170//19 168//19
f 175//20 169//20 153//20
f 173//10 174//10 177//10
f 175//21 164//21 155//21
f 174//23 173//23 180//23
f 177//22 175//22 170//22
f 181//1 179//1 185//1
f 192//2 196//2 185//2
f 166//12 176//12 188//12
f 191//3 187//3 189//3
f 191//4 182//4 187//4
f 196//5 186//5 185//5
f 180//13 178//13 184//13
f 184//14 179//14 181//14
f 183//15 184//15 181//15
f 182//16 188//16 190//16
f 185//6 186//6 181//6
f 183//17 180//17 184//17
f 186//7 190//7 181//7
f 188//18 180//18 183//18
f 190//8 187//8 182//8
f 187//9 196//9 189//9
f 190//19 183//19 181//19
f 188//20 182//20 166//20
f 186//10 187//10 190//10
f 188//21 176//21 180//21
f 187//23 186//23 196//23
f 190//22 188//22 183//22
f 197//1 195//1 201//1
f 193//2 208//2 201//2
f 191//12 189//12 204//12
f 194//3 203//3 217//3
f 194//4 198//4 203//4
f 208//5 202//5 201//5
f 196//13 192//13 200//13
f 200//14 195//14 197//14
f 199//15 200//15 197//15
f 198//16 204//16 205//16
f 201//6 202//6 197//6
f 199//17 196//17 200//17
f 202//7 205//7 197//7
f 204//18 196//18 199//18
f 205//8 203//8 198//8
f 203//9 208//9 217//9
f 205//19 199//19 197//19
f 204//20 198//20 191//20
f 202//10 203//10 205//10
f 204//21 189//21 196//21
f 203//23 202//23 208//23
f 205//22 204//22 199//22
f 209//1 207//1 213//1
f 206//2 223//2 213//2
f 194//12 217//12 216//12
f 219//3 215//3 233//3
f 219//4 210//4 215//4
f 223//5 214//5 213//5
f 208//13 193//13 212//13
f 212//14 207//14 209//14
f 211//15 212//15 209//15
f 210//16 216//16 218//16
f 213//6 214//6 209//6
f 211//17 208//17 212//17
f 214//7 218//7 209//7
f 216//18 208//18 211//18
f 218//8 215//8 210//8
f 215//9 223//9 233//9
f 218//19 211//19 209//19
f 216//20 210//20 194//20
f 214//10 215//10 218//10
f 216//21 217//21 208//21
f 215//23 214//23 223//23
f 218//22 216//22 211//22
f 224//1 222//1 228//1
f 220//2 237//2 228//2
f 219//12 233//12 231//12
f 221//3 230//3 232//3
f 221//4 225//4 230//4
f 237//5 229//5 228//5
f 223//13 206//13 227//13
f 227//14 222//14 224//14
f 226//15 227//15 224//15
f 225//16 231//16 234//16
f 228//6 229//6 224//6
f 226//17 223//17 227//17
f 229//7 234//7 224//7
f 231//18 223//18 226//18
f 234//8 230//8 225//8
f 230//9 237//9 232//9
f 234//19 226//19 224//19
f 231//20 225//20 219//20
f 229//10 230//10 234//10
f 231//21 233//21 223//21
f 230//23 229//23 237//23
f 234//24 231//24 226//24
f 239//1 236//1 243//1
f 235//2 238//2 243//2
f 221//12 232//12 246//12
f 249//3 245//3 247//3
f 249//4 240//4 245//4
f 238//5 244//5 243//5
f 237//13 220//13 242//13
f 242//14 236//14 239//14
f 241//15 242//15 239//15
f 240//16 246//16 248//16
f 243//6 244//6 239//6
f 241//17 237//17 242//17
f 244//7 248//7 239//7
f 246//18 237//18 241//18
f 248//8 245//8 240//8
f 245//9 238//9 247//9
f 248//19 241//19 239//19
f 246//20 240//20 221//20
f 244//10 245//10 248//10
f 246//21 232//21 237//21
f 245//11 244//11 238//11
f 248//22 246//22 241//22
f 253//1 252//1 257//1
f 250//2 265//2 257//2
f 249//12 247//12 260//12
f 251//3 259//3 275//3
f 251//4 254//4 259//4
f 265//5 258//5 257//5
f 238//13 235//13 256//13
f 256//14 252//14 253//14
f 255//15 256//15 253//15
f 254//16 260//16 261//16
f 257//6 258//6 253//6
f 255//17 238//17 256//17
f 258//7 261//7 253//7
f 260//18 238//18 255//18
f 261//8 259//8 254//8
f 259//9 265//9 275//9
f 261//19 255//19 253//19
f 260//20 254//20 249//20
f 258//10 259//10 261//10
f 260//21 247//21 238//21
f 259//11 258//11 265//11
f 261//22 260//22 255//22
f 266//1 264//1 270//1
f 262//2 280//2 270//2
f 251//12 275//12 273//12
f 263//3 272//3 274//3
f 263//4 267//4 272//4
f 280//5 271//5 270//5
f 265//13 250//13 269//13
f 269//14 264//14 266//14
f 268//15 269//15 266//15
f 267//16 273//16 276//16
f 270//6 271//6 266//6
f 268//17 265//17 269//17
f 271//7 276//7 266//7
f 273//18 265//18 268//18
f 276//8 272//8 267//8
f 272//9 280//9 274//9
f 276//19 268//19 266//19
f 273//20 267//20 251//20
f 271//10 272//10 276//10
f 273//21 275//21 265//21
f 272//23 271//23 280//23
f 276//22 273//22 268//22
f 281//1 279//1 285//1
f 277//2 291//2 285//2
f 263//12 274//12 288//12
f 278//3 287//3 301//3
f 278//4 282//4 287//4
f 291//5 286//5 285//5
f 280//13 262//13 284//13
f 284//14 279//14 281//14
f 283//15 284//15 281//15
f 282//16 288//16 289//16
f 285//6 286//6 281//6
f 283//17 280//17 284//17
f 286//7 289//7 281//7
f 288//18 280//18 283//18
f 289//8 287//8 282//8
f 287//9 291//9 301//9
f 289//19 283//19 281//19
f 288//20 282//20 263//20
f 286//10 287//10 289//10
f 288//21 274//21 280//21
f 287//23 286//23 291//23
f 289//24 288//24 283//24
f 292//1 290//1 296//1
f 304//2 307//2 296//2
f 278//12 301//12 299//12
f 303//3 298//3 300//3
f 303//4 293//4 298//4
f 307//5 297//5 296//5
f 291//13 277//13 295//13
f 295//14 290//14 292//14
f 294//15 295//15 292//15
f 293//16 299//16 302//16
f 296//6 297//6 292//6
f 294//17 291//17 295//17
f 297//7 302//7 292//7
f 299//18 291//18 294//18
f 302//8 298//8 293//8
f 298//9 307//9 300//9
f 302//19 294//19 292//19
f 299//20 293//20 278//20
f 297//10 298//10 302//10
f 299//21 301//21 291//21
f 298//23 297//23 307//23
f 302//22 299//22 294//22
f 308//1 306//1 312//1
f 317//2 320//2 312//2
f 303//12 300//12 315//12
f 305//3 314//3 331//3
f 305//4 309//4 314//4
f 320//5 313//5 312//5
f 307//13 304//13 311//13
f 311//14 306//14 308//14
f 310//15 311//15 308//15
f 309//16 315//16 316//16
f 312//6 313//6 308//6
f 310//17 307//17 311//17
f 313//7 316//7 308//7
f 315//18 307//18 310//18
f 316//8 314//8 309//8
f 314//9 320//9 331//9
f 316//19 310//19 308//19
f 315//20 309//20 303//20
f 313//10 314//10 316//10
f 315//21 300//21 307//21
f 314//23 313//23 320//23
f 316//24 315//24 310//24
f 322//1 319//1 326//1
f 318//2 321//2 326//2
f 305//12 331//12 329//12
f 333//3 328//3 330//3
f 333//4 323//4 328//4
f 321//5 327//5 326//5
f 320//13 317//13 325//13
f 325//14 319//14 322//14
f 324//15 325//15 322//15
f 323//16 329//16 332//16
f 326//6 327//6 322//6
f 324//17 320//17 325//17
f 327//7 332//7 322//7
f 329//18 320//18 324//18
f 332//8 328//8 323//8
f 328//9 321//9 330//9
f 332//19 324//19 322//19
f 329//20 323//20 305//20
f 327//10 328//10 332//10
f 329//21 331//21 320//21
f 328//23 327//23 321//23
f 332//22 329//22 324//22
f 337//1 335//1 341//1
f 346//2 336//2 341//2
f 333//12 330//12 344//12
f 334//3 343//3 360//3
f 334//4 338//4 343//4
f 336//5 342//5 341//5
f 321//13 318//13 340//13
f 340//14 335//14 337//14
f 339//15 340//15 337//15
f 338//16 344//16 345//16
f 341//6 342//6 337//6
f 339//17 321//17 340//17
f 342//7 345//7 337//7
f 344//18 321//18 339//18
f 345//8 343//8 338//8
f 343//9 336//9 360//9
f 345//19 339//19 337//19
f 344//20 338//20 333//20
f 342//10 343//10 345//10
f 344//21 330//21 321//21
f 343//23 342//23 336//23
f 345//22 344//22 339//22
f 351//1 349//1 355//1
f 347//2 350//2 355//2
f 334//12 360//12 358//12
f 348//3 357//3 359//3
f 348//4 352//4 357//4
f 350//5 356//5 355//5
f 336//13 346//13 354//13
f 354//14 349//14 351//14
f 353//15 354//15 351//15
f 352//16 358//16 361//16
f 355//25 356//25 351//25
f 353//17 336//17 354//17
f 356//7 361//7 351//7
f 358//18 336//18 353//18
f 361//8 357//8 352//8
f 357//9 350//9 359//9
f 361//19 353//19 351//19
f 358//20 352//20 334//20
f 356//10 357//10 361//10
f 358//21 360//21 336//21
f 357//23 356//23 350//23
f 361//22 358//22 353//22
f 365//1 364//1 369//1
f 362//2 375//2 369//2
f 348//12 359//12 372//12
f 363//3 371//3 385//3
f 363//4 366//4 371//4
f 375//5 370//5 369//5
f 350//13 347//13 368//13
f 368//14 364//14 365//14
f 367//15 368//15 365//15
f 366//16 372//16 373//16
f 369//6 370//6 365//6
f 367//17 350//17 368//17
f 370//7 373//7 365//7
f 372//18 350//18 367//18
f 373//8 371//8 366//8
f 371//9 375//9 385//9
f 373//19 367//19 365//19
f 372//20 366//20 348//20
f 370//10 371//10 373//10
f 372//21 359//21 350//21
f 371//23 370//23 375//23
f 373//24 372//24 367//24
f 377//1 374//1 381//1
f 388//2 376//2 381//2
f 363//12 385//12 384//12
f 387//3 383//3 395//3
f 387//4 378//4 383//4
f 376//5 382//5 381//5
f 375//13 362//13 380//13
f 380//14 374//14 377//14
f 379//15 380//15 377//15
f 378//16 384//16 386//16
f 381//6 382//6 377//6
f 379//17 375//17 380//17
f 382//7 386//7 377//7
f 384//18 375//18 379//18
f 386//8 383//8 378//8
f 383//9 376//9 395//9
f 386//19 379//19 377//19
f 384//20 378//20 363//20
f 382//26 383//26 386//26
f 384//21 385//21 375//21
f 383//23 382//23 376//23
f 386//22 384//22 379//22
f 387//12 395//12 394//12
f 376//13 388//13 393//13
f 393//14 389//14 390//14
f 392//15 393//15 390//15
f 391//16 394//16 396//16
f 392//17 376//17 393//17
f 394//18 376//18 392//18
f 396//19 392//19 390//19
f 394//20 391//20 387//20
f 394//21 395//21 376//21
f 396//22 394//22 392//22
